<svg xmlns="http://www.w3.org/2000/svg" viewBox="0 0 363.63 206.9"><defs><style>.cls-1{fill:#ff931e;}</style></defs><title> mutative-logo</title><g id="图层_1" data-name="图层 1"><path class="cls-1" d="M707,496a82,82,0,0,0-9.78-38.39c-9.85-18.81-17.05-39.37-30.42-55.89-35.13-43.42-98.58-40.61-131.15,5.13-26.13,36.69-51.9,73.63-77.76,110.51-13,18.6-35,23.9-53.81,12.77-18.28-10.83-23.83-31.65-13.5-52.29,7.28-14.54,15-28.89,22.72-43.19,11.29-20.81,35.14-27.21,55.61-15.12,2.51,1.48,4.9,3.18,7.35,4.76,11.52,7.46,22.28,6.1,29.86-3.76,6.44-8.37,5-19.5-3.71-28.16-27.51-27.44-79.17-28.48-107.4-1.7-23.35,22.15-34.62,51.76-46.56,80.45-7.33,17.62-6.42,36.66.73,55,11.13,28.53,31.61,46,61.75,50.4,32,4.63,59.73-4.5,79.27-31.7,27.24-37.92,54.09-76.13,80.89-114.37,14.9-21.26,46.5-23,62.21-2.05,13,17.36,22.2,37.31,30.81,57.09,7.69,17.67-3.32,38.28-22.35,47.18-17.71,8.29-37.44,2.28-47.83-14.9-3.66-6.05-6.56-12.56-9.83-18.85-6.91-13.32-19.21-18-31.16-12-11.07,5.6-13.3,16.19-7.37,30,8.9,20.78,20.22,39.85,40.77,50.68C641.78,596.88,707,558,707,496Z" transform="translate(-343.37 -370.78)"/></g></svg>